<!--
category: Devices
tags: [ring, mobile, conversation, answer, dial, landline]
version: "1.0"
unicode: "eb05"
-->
<svg
  xmlns="http://www.w3.org/2000/svg"
  width="32"
  height="32"
  viewBox="0 0 24 24"
  fill="none"
  stroke="#e5e0e0"
  stroke-width="1"
  stroke-linecap="round"
  stroke-linejoin="round"
>
  <path d="M5 4h4l2 5l-2.5 1.5a11 11 0 0 0 5 5l1.5 -2.5l5 2v4a2 2 0 0 1 -2 2a16 16 0 0 1 -15 -15a2 2 0 0 1 2 -2" />
  <path d="M15 7a2 2 0 0 1 2 2" />
  <path d="M15 3a6 6 0 0 1 6 6" />
</svg>
